<svg width="1200" height="900" viewBox="0 0 1200 900" fill="none" xmlns="http://www.w3.org/2000/svg">
  <rect width="1200" height="900" fill="#09131D"/>
  <rect x="48" y="48" width="1104" height="804" rx="28" fill="#0D1C2A" stroke="#1A3347" stroke-width="2"/>
  <circle cx="238" cy="220" r="112" fill="#102838" stroke="#2E5D7B" stroke-width="3"/>
  <circle cx="238" cy="220" r="56" fill="#D4E8FF" opacity="0.18"/>
  <circle cx="238" cy="220" r="24" fill="#88D4FF"/>
  <circle cx="468" cy="366" r="122" fill="#102838" stroke="#2E5D7B" stroke-width="3"/>
  <circle cx="468" cy="366" r="58" fill="#D4E8FF" opacity="0.18"/>
  <circle cx="468" cy="366" r="24" fill="#88D4FF"/>
  <circle cx="742" cy="234" r="136" fill="#102838" stroke="#2E5D7B" stroke-width="3"/>
  <circle cx="742" cy="234" r="68" fill="#8BFFB6" opacity="0.16"/>
  <circle cx="742" cy="234" r="24" fill="#8BFFB6"/>
  <circle cx="930" cy="418" r="110" fill="#102838" stroke="#2E5D7B" stroke-width="3"/>
  <circle cx="930" cy="418" r="54" fill="#F2DCA5" opacity="0.16"/>
  <circle cx="930" cy="418" r="24" fill="#F2DCA5"/>
  <path d="M309 262L394 316" stroke="#5FC8FF" stroke-width="18" stroke-linecap="round"/>
  <path d="M543 331L633 287" stroke="#8BFFB6" stroke-width="18" stroke-linecap="round"/>
  <path d="M821 291L878 347" stroke="#F2DCA5" stroke-width="18" stroke-linecap="round"/>
  <path d="M503 465L664 611" stroke="#375A74" stroke-width="16" stroke-linecap="round" stroke-dasharray="14 18"/>
  <path d="M742 234L742 576" stroke="#18354A" stroke-width="2" stroke-dasharray="10 14"/>
  <path d="M238 220L238 644" stroke="#18354A" stroke-width="2" stroke-dasharray="10 14"/>
  <rect x="122" y="618" width="956" height="162" rx="28" fill="#07111A" stroke="#18354A" stroke-width="2"/>
  <text x="156" y="676" fill="#6FA3C8" font-family="'JetBrains Mono', monospace" font-size="24" letter-spacing="5">MULTI-CHAIN PORTFOLIO DASHBOARD</text>
  <text x="154" y="742" fill="#E8F6FF" font-family="Georgia, serif" font-size="116">Chain Chains</text>
  <rect x="826" y="672" width="104" height="44" rx="22" fill="#163246"/>
  <text x="846" y="700" fill="#88D4FF" font-family="'JetBrains Mono', monospace" font-size="20">ETH</text>
  <rect x="944" y="672" width="106" height="44" rx="22" fill="#183B2A"/>
  <text x="964" y="700" fill="#8BFFB6" font-family="'JetBrains Mono', monospace" font-size="20">SOL</text>
  <rect x="826" y="724" width="224" height="30" rx="15" fill="#102838"/>
  <rect x="838" y="730" width="118" height="18" rx="9" fill="#88D4FF"/>
  <rect x="960" y="730" width="78" height="18" rx="9" fill="#8BFFB6"/>
</svg>